<svg width="70" height="70" viewBox="0 0 70 70" fill="none" xmlns="http://www.w3.org/2000/svg">
<g filter="url(#filter0_d_85_183)">
<path d="M35 6C21.2151 6 10 17.2151 10 31C10 44.7849 21.2151 56 35 56C48.7849 56 60 44.7849 60 31C60 17.2151 48.7849 6 35 6ZM35 9.75C46.7583 9.75 56.25 19.2417 56.25 31C56.25 42.7583 46.7583 52.25 35 52.25C23.2417 52.25 13.75 42.7583 13.75 31C13.75 19.2417 23.2417 9.75 35 9.75ZM34.3457 14.7231C33.8488 14.7309 33.3754 14.9356 33.0293 15.2922C32.6833 15.6488 32.4929 16.1281 32.5 16.625V18.0654C29.0097 18.5479 26.25 21.447 26.25 25.0625C26.25 29.0098 29.4902 32.25 33.4375 32.25H35.9375C38.2026 32.25 40 34.0474 40 36.3125C40 38.5776 38.2026 40.375 35.9375 40.375H33.125C31.6528 40.375 30.4487 39.3793 30.1001 38.041C30.0437 37.7968 29.9389 37.5665 29.7919 37.3635C29.6449 37.1605 29.4587 36.989 29.2443 36.8592C29.0299 36.7294 28.7917 36.6439 28.5437 36.6077C28.2957 36.5716 28.043 36.5855 27.8005 36.6486C27.558 36.7118 27.3305 36.8229 27.1317 36.9755C26.9329 37.128 26.7666 37.3189 26.6428 37.5367C26.5189 37.7546 26.4401 37.9951 26.4107 38.244C26.3814 38.4929 26.4023 38.7452 26.4722 38.9858C27.1905 41.7438 29.6079 43.7472 32.5 44.02V45.375C32.4965 45.6235 32.5424 45.8701 32.635 46.1007C32.7277 46.3313 32.8652 46.5411 33.0397 46.7181C33.2142 46.895 33.422 47.0355 33.6513 47.1314C33.8805 47.2273 34.1265 47.2767 34.375 47.2767C34.6235 47.2767 34.8695 47.2273 35.0987 47.1314C35.328 47.0355 35.5358 46.895 35.7103 46.7181C35.8848 46.5411 36.0223 46.3313 36.115 46.1007C36.2076 45.8701 36.2535 45.6235 36.25 45.375V44.0615C40.3913 43.8866 43.75 40.4943 43.75 36.3125C43.75 32.0201 40.2299 28.5 35.9375 28.5H33.4375C31.5173 28.5 30 26.9827 30 25.0625C30 23.1423 31.5173 21.625 33.4375 21.625H34.0674C34.2687 21.6581 34.474 21.6581 34.6753 21.625H35.625C37.0864 21.625 38.2848 22.6085 38.6426 23.9321C38.7068 24.1699 38.8173 24.3927 38.9676 24.5878C39.118 24.7829 39.3053 24.9464 39.5189 25.0691C39.7324 25.1918 39.9681 25.2712 40.2124 25.3028C40.4566 25.3344 40.7047 25.3176 40.9425 25.2533C41.1802 25.189 41.403 25.0785 41.5981 24.9281C41.7931 24.7777 41.9566 24.5904 42.0793 24.3768C42.2019 24.1632 42.2813 23.9275 42.3128 23.6832C42.3444 23.439 42.3275 23.1909 42.2632 22.9531C41.5257 20.2246 39.1212 18.2504 36.25 17.98V16.625C36.2536 16.374 36.2068 16.1249 36.1123 15.8924C36.0179 15.6599 35.8777 15.4487 35.7001 15.2713C35.5225 15.0939 35.3111 14.954 35.0785 14.8599C34.8458 14.7657 34.5967 14.7192 34.3457 14.7231Z" fill="#213966"/>
</g>
<defs>
<filter id="filter0_d_85_183" x="0" y="0" width="70" height="70" filterUnits="userSpaceOnUse" color-interpolation-filters="sRGB">
<feFlood flood-opacity="0" result="BackgroundImageFix"/>
<feColorMatrix in="SourceAlpha" type="matrix" values="0 0 0 0 0 0 0 0 0 0 0 0 0 0 0 0 0 0 127 0" result="hardAlpha"/>
<feOffset dy="4"/>
<feGaussianBlur stdDeviation="5"/>
<feComposite in2="hardAlpha" operator="out"/>
<feColorMatrix type="matrix" values="0 0 0 0 0 0 0 0 0 0 0 0 0 0 0 0 0 0 0.3 0"/>
<feBlend mode="normal" in2="BackgroundImageFix" result="effect1_dropShadow_85_183"/>
<feBlend mode="normal" in="SourceGraphic" in2="effect1_dropShadow_85_183" result="shape"/>
</filter>
</defs>
</svg>
