<svg width="50" height="50" viewBox="0 0 50 50" fill="none" xmlns="http://www.w3.org/2000/svg">
<path d="M25 0C11.2151 0 0 11.2151 0 25C0 38.7849 11.2151 50 25 50C38.7849 50 50 38.7849 50 25C50 11.2151 38.7849 0 25 0ZM25 3.75C36.7583 3.75 46.25 13.2417 46.25 25C46.25 36.7583 36.7583 46.25 25 46.25C13.2417 46.25 3.75 36.7583 3.75 25C3.75 13.2417 13.2417 3.75 25 3.75ZM24.3457 8.72314C23.8488 8.73091 23.3754 8.93556 23.0293 9.29216C22.6833 9.64876 22.4929 10.1281 22.5 10.625V12.0654C19.0097 12.5479 16.25 15.447 16.25 19.0625C16.25 23.0098 19.4902 26.25 23.4375 26.25H25.9375C28.2026 26.25 30 28.0474 30 30.3125C30 32.5776 28.2026 34.375 25.9375 34.375H23.125C21.6528 34.375 20.4487 33.3793 20.1001 32.041C20.0437 31.7968 19.9389 31.5665 19.7919 31.3635C19.6449 31.1605 19.4587 30.989 19.2443 30.8592C19.0299 30.7294 18.7917 30.6439 18.5437 30.6077C18.2957 30.5716 18.043 30.5855 17.8005 30.6486C17.558 30.7118 17.3305 30.8229 17.1317 30.9755C16.9329 31.128 16.7666 31.3189 16.6428 31.5367C16.5189 31.7546 16.4401 31.9951 16.4107 32.244C16.3814 32.4929 16.4023 32.7452 16.4722 32.9858C17.1905 35.7438 19.6079 37.7472 22.5 38.02V39.375C22.4965 39.6235 22.5424 39.8701 22.635 40.1007C22.7277 40.3313 22.8652 40.5411 23.0397 40.7181C23.2142 40.895 23.422 41.0355 23.6513 41.1314C23.8805 41.2273 24.1265 41.2767 24.375 41.2767C24.6235 41.2767 24.8695 41.2273 25.0987 41.1314C25.328 41.0355 25.5358 40.895 25.7103 40.7181C25.8848 40.5411 26.0223 40.3313 26.115 40.1007C26.2076 39.8701 26.2535 39.6235 26.25 39.375V38.0615C30.3913 37.8866 33.75 34.4943 33.75 30.3125C33.75 26.0201 30.2299 22.5 25.9375 22.5H23.4375C21.5173 22.5 20 20.9827 20 19.0625C20 17.1423 21.5173 15.625 23.4375 15.625H24.0674C24.2687 15.6581 24.474 15.6581 24.6753 15.625H25.625C27.0864 15.625 28.2848 16.6085 28.6426 17.9321C28.7068 18.1699 28.8173 18.3927 28.9676 18.5878C29.118 18.7829 29.3053 18.9464 29.5189 19.0691C29.7324 19.1918 29.9681 19.2712 30.2124 19.3028C30.4566 19.3344 30.7047 19.3176 30.9425 19.2533C31.1802 19.189 31.403 19.0785 31.5981 18.9281C31.7931 18.7777 31.9566 18.5904 32.0793 18.3768C32.2019 18.1632 32.2813 17.9275 32.3128 17.6832C32.3444 17.439 32.3275 17.1909 32.2632 16.9531C31.5257 14.2246 29.1212 12.2504 26.25 11.98V10.625C26.2536 10.374 26.2068 10.1249 26.1123 9.89239C26.0179 9.65986 25.8777 9.44865 25.7001 9.2713C25.5225 9.09394 25.3111 8.95403 25.0785 8.85988C24.8458 8.76572 24.5967 8.71922 24.3457 8.72314Z" fill="#213966"/>
</svg>
