<svg width="45" height="45" viewBox="0 0 45 45" fill="none" xmlns="http://www.w3.org/2000/svg">
<path d="M8.31522 0C5.89555 0 3.91304 2.17122 3.91304 4.82121C3.91304 7.47119 5.89555 9.64241 8.31522 9.64241C10.7349 9.64241 12.7174 7.47119 12.7174 4.82121C12.7174 2.17122 10.7349 0 8.31522 0ZM36.6848 0C34.2651 0 32.2826 2.17122 32.2826 4.82121C32.2826 7.47119 34.2651 9.64241 36.6848 9.64241C39.1045 9.64241 41.087 7.47119 41.087 4.82121C41.087 2.17122 39.1045 0 36.6848 0ZM8.31522 2.14276C9.6775 2.14276 10.7609 3.32925 10.7609 4.82121C10.7609 6.31316 9.6775 7.49965 8.31522 7.49965C6.95293 7.49965 5.86957 6.31316 5.86957 4.82121C5.86957 3.32925 6.95293 2.14276 8.31522 2.14276ZM36.6848 2.14276C38.0471 2.14276 39.1304 3.32925 39.1304 4.82121C39.1304 6.31316 38.0471 7.49965 36.6848 7.49965C35.3225 7.49965 34.2391 6.31316 34.2391 4.82121C34.2391 3.32925 35.3225 2.14276 36.6848 2.14276ZM5.86765 10.7117C2.6378 10.7117 0 13.6032 0 17.14V28.9272C0 30.6896 1.32557 32.1414 2.93478 32.1414C3.27898 32.1414 3.605 32.0621 3.91304 31.9405V32.631L1.16551 40.6559C0.6 42.3064 1.37615 44.1727 2.88128 44.7928H2.88319L2.88511 44.7949C3.21939 44.9312 3.56755 45 3.91304 45C5.10479 45 6.22126 44.1931 6.66058 42.9137V42.9117L7.82609 39.5071V41.7838C7.82609 43.5462 9.15166 44.9979 10.7609 44.9979C12.3701 44.9979 13.6957 43.5462 13.6957 41.7838V22.1641L14.1427 23.0221C14.4296 23.5718 14.86 24.0185 15.3789 24.3027L15.3083 24.2609L20.1747 27.498L20.211 27.519C20.5569 27.707 20.9254 27.7952 21.2925 27.8266C21.3663 27.8459 21.442 27.8557 21.5179 27.8559C21.5205 27.8559 21.523 27.8559 21.5256 27.8559C21.5288 27.8558 21.5319 27.8538 21.5351 27.8538C21.7264 27.8526 21.9148 27.8241 22.1007 27.7826C22.1487 27.7721 22.1962 27.7645 22.244 27.7512C22.4229 27.701 22.5963 27.632 22.7637 27.5462C22.7862 27.5347 22.8101 27.5311 22.8325 27.519L22.7828 27.5441L29.6306 24.3299C29.6487 24.3214 29.6665 24.3124 29.6841 24.3027C29.9832 24.139 30.2548 23.9214 30.4866 23.6561L30.4885 23.6519C30.4885 23.6519 30.5778 23.5349 30.5898 23.5159C30.6017 23.497 30.608 23.4853 30.6146 23.4741C30.6277 23.4517 30.6384 23.4337 30.6509 23.4113C30.676 23.3665 30.7054 23.3103 30.7426 23.2418C30.8171 23.1048 30.9176 22.9186 31.0369 22.6957C31.1109 22.5571 31.2184 22.3549 31.3043 22.1934V41.7838C31.3043 43.5462 32.6299 44.9979 34.2391 44.9979C34.991 44.9979 35.6739 44.6721 36.1957 44.1546C36.7174 44.6721 37.4003 44.9979 38.1522 44.9979C39.7614 44.9979 41.087 43.5462 41.087 41.7838V31.9405C41.395 32.0621 41.721 32.1414 42.0652 32.1414C43.6744 32.1414 45 30.6896 45 28.9272V17.1421C45 13.605 42.3622 10.7138 39.1323 10.7138L32.9093 10.7117C31.6476 10.7123 30.7069 11.0816 30.0701 11.6324C29.4332 12.1832 29.1315 12.862 28.9619 13.2102C28.1983 14.7787 26.4757 18.4958 26.2602 18.9605L21.7071 20.9944L18.8239 19.0337L15.8127 13.2625L15.8528 13.3483C15.8528 13.3483 14.6384 10.713 11.8003 10.7117H5.86765ZM5.86765 12.8545H11.8003C13.6089 12.8553 14.0721 14.2397 14.0721 14.2397L14.0912 14.2837L17.3718 20.5675L21.0708 23.0828C21.074 23.0849 21.0772 23.087 21.0804 23.0891L21.9192 23.6603L21.9593 23.6833C22.4532 23.9538 22.644 24.5788 22.3968 25.1209C22.2739 25.3867 22.0693 25.5617 21.837 25.6482C21.8147 25.6566 21.7924 25.6689 21.7701 25.6754C21.6908 25.698 21.6084 25.7126 21.5256 25.7131H21.5198C21.3787 25.7131 21.2353 25.6765 21.0938 25.6022L16.2903 22.4048L16.254 22.386C16.0808 22.2911 15.9399 22.1437 15.8432 21.9591L13.6116 17.6819L13.5829 17.6987C13.4986 17.5237 13.3717 17.3776 13.2162 17.2768C13.0607 17.176 12.8828 17.1243 12.7021 17.1274C12.443 17.1318 12.1961 17.2487 12.0155 17.4523C11.835 17.6559 11.7356 17.9297 11.7391 18.2134V41.7838C11.7391 42.3891 11.3136 42.8552 10.7609 42.8552C10.2081 42.8552 9.78261 42.3891 9.78261 41.7838V28.9272C9.78444 28.7853 9.76049 28.6443 9.71215 28.5126C9.66381 28.3808 9.59205 28.2609 9.50103 28.1598C9.41 28.0587 9.30154 27.9784 9.18194 27.9236C9.06234 27.8688 8.93399 27.8406 8.80435 27.8406C8.6747 27.8406 8.54635 27.8688 8.42675 27.9236C8.30715 27.9784 8.19869 28.0587 8.10767 28.1598C8.01665 28.2609 7.94488 28.3808 7.89654 28.5126C7.8482 28.6443 7.82425 28.7853 7.82609 28.9272V33.2127C7.82609 33.3419 7.80567 33.4705 7.76495 33.5894L4.83016 42.1583C4.67861 42.5997 4.30608 42.8572 3.91304 42.8572C3.80326 42.8572 3.68617 42.8336 3.56912 42.7861H3.56721C3.05217 42.5712 2.80283 41.9707 2.99592 41.4071L5.86957 33.0202V28.9272V18.2134C5.87136 18.0701 5.84687 17.9278 5.79755 17.795C5.74823 17.6623 5.67508 17.5417 5.58244 17.4404C5.48979 17.3391 5.37953 17.2592 5.25819 17.2055C5.13685 17.1517 5.0069 17.1252 4.87602 17.1274C4.6169 17.1318 4.36998 17.2487 4.18944 17.4523C4.0089 17.6559 3.9095 17.9297 3.91304 18.2134V28.9272C3.91304 29.5326 3.48753 29.9986 2.93478 29.9986C2.38204 29.9986 1.95652 29.5326 1.95652 28.9272V17.14C1.95652 14.7606 3.69555 12.8545 5.86765 12.8545ZM32.9093 12.8545L39.1304 12.8565H39.1323C41.3044 12.8565 43.0435 14.7629 43.0435 17.1421V28.9272C43.0435 29.5326 42.618 29.9986 42.0652 29.9986C41.5125 29.9986 41.087 29.5326 41.087 28.9272V18.2134C41.0887 18.0701 41.0643 17.9278 41.0149 17.795C40.9656 17.6623 40.8925 17.5417 40.7998 17.4404C40.7072 17.3391 40.5969 17.2592 40.4756 17.2055C40.3542 17.1517 40.2243 17.1252 40.0934 17.1274C39.8343 17.1318 39.5874 17.2487 39.4068 17.4523C39.2263 17.6559 39.1269 17.9297 39.1304 18.2134V28.9272V41.7838C39.1304 42.3891 38.7049 42.8552 38.1522 42.8552C37.5994 42.8552 37.1739 42.3891 37.1739 41.7838V28.9272C37.1757 28.7853 37.1518 28.6443 37.1035 28.5126C37.0551 28.3808 36.9834 28.2609 36.8923 28.1598C36.8013 28.0587 36.6928 27.9784 36.5732 27.9236C36.4536 27.8688 36.3253 27.8406 36.1957 27.8406C36.066 27.8406 35.9377 27.8688 35.8181 27.9236C35.6985 27.9784 35.59 28.0587 35.499 28.1598C35.408 28.2609 35.3362 28.3808 35.2878 28.5126C35.2395 28.6443 35.2156 28.7853 35.2174 28.9272V41.7838C35.2174 42.3891 34.7919 42.8552 34.2391 42.8552C33.6864 42.8552 33.2609 42.3891 33.2609 41.7838V18.3055C33.2766 18.1289 33.2519 17.9508 33.1893 17.7872C33.1266 17.6235 33.0277 17.4795 32.9017 17.3681C32.8837 17.352 32.8652 17.3366 32.8463 17.322C32.8387 17.3163 32.831 17.3107 32.8233 17.3053C32.8176 17.3017 32.8119 17.2982 32.8061 17.2948C32.7838 17.2792 32.7608 17.2645 32.7373 17.2509C32.7173 17.2389 32.6969 17.2278 32.6762 17.2174C32.6718 17.2153 32.6673 17.2132 32.6628 17.2111C32.6371 17.1994 32.611 17.189 32.5845 17.1797C32.5756 17.1768 32.5667 17.174 32.5577 17.1714C32.5357 17.1642 32.5134 17.1579 32.4909 17.1525C32.4864 17.1518 32.482 17.1511 32.4775 17.1504C32.4497 17.1442 32.4216 17.1393 32.3934 17.1358H32.3915C32.3503 17.1301 32.3088 17.1273 32.2673 17.1274C32.0797 17.1307 31.8969 17.193 31.7408 17.3069C31.5846 17.4208 31.4616 17.5815 31.3865 17.7698C31.3407 17.8566 30.7995 18.8827 30.2057 20.0026C29.8965 20.5857 29.5858 21.1702 29.3497 21.6117C29.2317 21.8325 29.1312 22.0187 29.0612 22.1474C29.0456 22.1761 29.0393 22.1896 29.0268 22.2123C28.9642 22.2756 28.8972 22.3354 28.8186 22.3797L24.4355 24.4366C24.3887 23.696 24.1133 22.9898 23.6445 22.4425L27.334 20.7935C27.5516 20.6963 27.73 20.5166 27.8365 20.2871C27.8365 20.2871 29.9108 15.8177 30.6891 14.2188V14.2167C30.8781 13.8287 31.0184 13.5418 31.2833 13.3127C31.5487 13.0833 31.9699 12.8549 32.9093 12.8545Z" fill="#213966"/>
</svg>
