<svg width="65" height="65" viewBox="0 0 65 65" fill="none" xmlns="http://www.w3.org/2000/svg">
<g filter="url(#filter0_d_85_188)">
<path d="M18.3152 6C15.8956 6 13.913 8.17122 13.913 10.8212C13.913 13.4712 15.8956 15.6424 18.3152 15.6424C20.7349 15.6424 22.7174 13.4712 22.7174 10.8212C22.7174 8.17122 20.7349 6 18.3152 6ZM46.6848 6C44.2651 6 42.2826 8.17122 42.2826 10.8212C42.2826 13.4712 44.2651 15.6424 46.6848 15.6424C49.1045 15.6424 51.087 13.4712 51.087 10.8212C51.087 8.17122 49.1045 6 46.6848 6ZM18.3152 8.14276C19.6775 8.14276 20.7609 9.32925 20.7609 10.8212C20.7609 12.3132 19.6775 13.4997 18.3152 13.4997C16.9529 13.4997 15.8696 12.3132 15.8696 10.8212C15.8696 9.32925 16.9529 8.14276 18.3152 8.14276ZM46.6848 8.14276C48.0471 8.14276 49.1304 9.32925 49.1304 10.8212C49.1304 12.3132 48.0471 13.4997 46.6848 13.4997C45.3225 13.4997 44.2391 12.3132 44.2391 10.8212C44.2391 9.32925 45.3225 8.14276 46.6848 8.14276ZM15.8677 16.7117C12.6378 16.7117 10 19.6032 10 23.14V34.9272C10 36.6896 11.3256 38.1414 12.9348 38.1414C13.279 38.1414 13.605 38.0621 13.913 37.9405V38.631L11.1655 46.6559C10.6 48.3064 11.3762 50.1727 12.8813 50.7928H12.8832L12.8851 50.7949C13.2194 50.9312 13.5675 51 13.913 51C15.1048 51 16.2213 50.1931 16.6606 48.9137V48.9117L17.8261 45.5071V47.7838C17.8261 49.5462 19.1517 50.9979 20.7609 50.9979C22.3701 50.9979 23.6957 49.5462 23.6957 47.7838V28.1641L24.1427 29.0221C24.4296 29.5718 24.86 30.0185 25.3789 30.3027L25.3083 30.2609L30.1747 33.498L30.211 33.519C30.5569 33.707 30.9254 33.7952 31.2925 33.8266C31.3663 33.8459 31.442 33.8557 31.5179 33.8559C31.5205 33.8559 31.523 33.8559 31.5256 33.8559C31.5288 33.8558 31.5319 33.8538 31.5351 33.8538C31.7264 33.8526 31.9148 33.8241 32.1007 33.7826C32.1487 33.7721 32.1962 33.7645 32.244 33.7512C32.4229 33.701 32.5963 33.632 32.7637 33.5462C32.7862 33.5347 32.8101 33.5311 32.8325 33.519L32.7828 33.5441L39.6306 30.3299C39.6487 30.3214 39.6665 30.3124 39.6841 30.3027C39.9832 30.139 40.2548 29.9214 40.4866 29.6561L40.4885 29.6519C40.4885 29.6519 40.5778 29.5349 40.5898 29.5159C40.6017 29.497 40.608 29.4853 40.6146 29.4741C40.6277 29.4517 40.6384 29.4337 40.6509 29.4113C40.676 29.3665 40.7054 29.3103 40.7426 29.2418C40.8171 29.1048 40.9176 28.9186 41.0369 28.6957C41.1109 28.5571 41.2184 28.3549 41.3043 28.1934V47.7838C41.3043 49.5462 42.6299 50.9979 44.2391 50.9979C44.991 50.9979 45.6739 50.6721 46.1957 50.1546C46.7174 50.6721 47.4003 50.9979 48.1522 50.9979C49.7614 50.9979 51.087 49.5462 51.087 47.7838V37.9405C51.395 38.0621 51.721 38.1414 52.0652 38.1414C53.6744 38.1414 55 36.6896 55 34.9272V23.1421C55 19.605 52.3622 16.7138 49.1323 16.7138L42.9093 16.7117C41.6476 16.7123 40.7069 17.0816 40.0701 17.6324C39.4332 18.1832 39.1315 18.862 38.9619 19.2102C38.1983 20.7787 36.4757 24.4958 36.2602 24.9605L31.7071 26.9944L28.8239 25.0337L25.8127 19.2625L25.8528 19.3483C25.8528 19.3483 24.6384 16.713 21.8003 16.7117H15.8677ZM15.8677 18.8545H21.8003C23.6089 18.8553 24.0721 20.2397 24.0721 20.2397L24.0912 20.2837L27.3718 26.5675L31.0708 29.0828C31.074 29.0849 31.0772 29.087 31.0804 29.0891L31.9192 29.6603L31.9593 29.6833C32.4532 29.9538 32.644 30.5788 32.3968 31.1209C32.2739 31.3867 32.0693 31.5617 31.837 31.6482C31.8147 31.6566 31.7924 31.6689 31.7701 31.6754C31.6908 31.698 31.6084 31.7126 31.5256 31.7131H31.5198C31.3787 31.7131 31.2353 31.6765 31.0938 31.6022L26.2903 28.4048L26.254 28.386C26.0808 28.2911 25.9399 28.1437 25.8432 27.9591L23.6116 23.6819L23.5829 23.6987C23.4986 23.5237 23.3717 23.3776 23.2162 23.2768C23.0607 23.176 22.8828 23.1243 22.7021 23.1274C22.443 23.1318 22.1961 23.2487 22.0155 23.4523C21.835 23.6559 21.7356 23.9297 21.7391 24.2134V47.7838C21.7391 48.3891 21.3136 48.8552 20.7609 48.8552C20.2081 48.8552 19.7826 48.3891 19.7826 47.7838V34.9272C19.7844 34.7853 19.7605 34.6443 19.7122 34.5126C19.6638 34.3808 19.592 34.2609 19.501 34.1598C19.41 34.0587 19.3015 33.9784 19.1819 33.9236C19.0623 33.8688 18.934 33.8406 18.8043 33.8406C18.6747 33.8406 18.5464 33.8688 18.4268 33.9236C18.3072 33.9784 18.1987 34.0587 18.1077 34.1598C18.0166 34.2609 17.9449 34.3808 17.8965 34.5126C17.8482 34.6443 17.8243 34.7853 17.8261 34.9272V39.2127C17.8261 39.3419 17.8057 39.4705 17.7649 39.5894L14.8302 48.1583C14.6786 48.5997 14.3061 48.8572 13.913 48.8572C13.8033 48.8572 13.6862 48.8336 13.5691 48.7861H13.5672C13.0522 48.5712 12.8028 47.9707 12.9959 47.4071L15.8696 39.0202V34.9272V24.2134C15.8714 24.0701 15.8469 23.9278 15.7975 23.795C15.7482 23.6623 15.6751 23.5417 15.5824 23.4404C15.4898 23.3391 15.3795 23.2592 15.2582 23.2055C15.1369 23.1517 15.0069 23.1252 14.876 23.1274C14.6169 23.1318 14.37 23.2487 14.1894 23.4523C14.0089 23.6559 13.9095 23.9297 13.913 24.2134V34.9272C13.913 35.5326 13.4875 35.9986 12.9348 35.9986C12.382 35.9986 11.9565 35.5326 11.9565 34.9272V23.14C11.9565 20.7606 13.6955 18.8545 15.8677 18.8545ZM42.9093 18.8545L49.1304 18.8565H49.1323C51.3044 18.8565 53.0435 20.7629 53.0435 23.1421V34.9272C53.0435 35.5326 52.618 35.9986 52.0652 35.9986C51.5125 35.9986 51.087 35.5326 51.087 34.9272V24.2134C51.0887 24.0701 51.0643 23.9278 51.0149 23.795C50.9656 23.6623 50.8925 23.5417 50.7998 23.4404C50.7072 23.3391 50.5969 23.2592 50.4756 23.2055C50.3542 23.1517 50.2243 23.1252 50.0934 23.1274C49.8343 23.1318 49.5874 23.2487 49.4068 23.4523C49.2263 23.6559 49.1269 23.9297 49.1304 24.2134V34.9272V47.7838C49.1304 48.3891 48.7049 48.8552 48.1522 48.8552C47.5994 48.8552 47.1739 48.3891 47.1739 47.7838V34.9272C47.1757 34.7853 47.1518 34.6443 47.1035 34.5126C47.0551 34.3808 46.9834 34.2609 46.8923 34.1598C46.8013 34.0587 46.6928 33.9784 46.5732 33.9236C46.4536 33.8688 46.3253 33.8406 46.1957 33.8406C46.066 33.8406 45.9377 33.8688 45.8181 33.9236C45.6985 33.9784 45.59 34.0587 45.499 34.1598C45.408 34.2609 45.3362 34.3808 45.2878 34.5126C45.2395 34.6443 45.2156 34.7853 45.2174 34.9272V47.7838C45.2174 48.3891 44.7919 48.8552 44.2391 48.8552C43.6864 48.8552 43.2609 48.3891 43.2609 47.7838V24.3055C43.2766 24.1289 43.2519 23.9508 43.1893 23.7872C43.1266 23.6235 43.0277 23.4795 42.9017 23.3681C42.8837 23.352 42.8652 23.3366 42.8463 23.322C42.8387 23.3163 42.831 23.3107 42.8233 23.3053C42.8176 23.3017 42.8119 23.2982 42.8061 23.2948C42.7838 23.2792 42.7608 23.2645 42.7373 23.2509C42.7173 23.2389 42.6969 23.2278 42.6762 23.2174C42.6718 23.2153 42.6673 23.2132 42.6628 23.2111C42.6371 23.1994 42.611 23.189 42.5845 23.1797C42.5756 23.1768 42.5667 23.174 42.5577 23.1714C42.5357 23.1642 42.5134 23.1579 42.4909 23.1525C42.4864 23.1518 42.482 23.1511 42.4775 23.1504C42.4497 23.1442 42.4216 23.1393 42.3934 23.1358H42.3915C42.3503 23.1301 42.3088 23.1273 42.2673 23.1274C42.0797 23.1307 41.8969 23.193 41.7408 23.3069C41.5846 23.4208 41.4616 23.5815 41.3865 23.7698C41.3407 23.8566 40.7995 24.8827 40.2057 26.0026C39.8965 26.5857 39.5858 27.1702 39.3497 27.6117C39.2317 27.8325 39.1312 28.0187 39.0612 28.1474C39.0456 28.1761 39.0393 28.1896 39.0268 28.2123C38.9642 28.2756 38.8972 28.3354 38.8186 28.3797L34.4355 30.4366C34.3887 29.696 34.1133 28.9898 33.6445 28.4425L37.334 26.7935C37.5516 26.6963 37.73 26.5166 37.8365 26.2871C37.8365 26.2871 39.9108 21.8177 40.6891 20.2188V20.2167C40.8781 19.8287 41.0184 19.5418 41.2833 19.3127C41.5487 19.0833 41.9699 18.8549 42.9093 18.8545Z" fill="#213966"/>
</g>
<defs>
<filter id="filter0_d_85_188" x="0" y="0" width="65" height="65" filterUnits="userSpaceOnUse" color-interpolation-filters="sRGB">
<feFlood flood-opacity="0" result="BackgroundImageFix"/>
<feColorMatrix in="SourceAlpha" type="matrix" values="0 0 0 0 0 0 0 0 0 0 0 0 0 0 0 0 0 0 127 0" result="hardAlpha"/>
<feOffset dy="4"/>
<feGaussianBlur stdDeviation="5"/>
<feComposite in2="hardAlpha" operator="out"/>
<feColorMatrix type="matrix" values="0 0 0 0 0 0 0 0 0 0 0 0 0 0 0 0 0 0 0.3 0"/>
<feBlend mode="normal" in2="BackgroundImageFix" result="effect1_dropShadow_85_188"/>
<feBlend mode="normal" in="SourceGraphic" in2="effect1_dropShadow_85_188" result="shape"/>
</filter>
</defs>
</svg>
