<svg width="45" height="45" viewBox="0 0 45 45" fill="none" xmlns="http://www.w3.org/2000/svg">
<path d="M13.6573 0.00595956C6.63243 -0.210423 0.373442 5.4899 0.0156065 13.1377C-0.14134 16.5998 0.894502 19.832 2.71507 22.3542L2.72763 22.361L3.3303 23.1724C3.01641 24.8291 3.4433 26.621 4.62981 27.899C5.5652 28.9065 6.80821 29.4205 8.03867 29.4205C8.03867 29.4205 8.04494 29.4205 8.05122 29.4205C8.05122 30.7526 8.51578 32.0847 9.45118 33.0922C10.3866 34.0997 11.6296 34.6136 12.86 34.6136H12.8663C12.8663 35.9457 13.3372 37.2778 14.2725 38.2854C15.2079 39.2929 16.451 39.8068 17.6814 39.8068H17.6877C17.6877 41.1389 18.1585 42.471 19.0939 43.4786C20.0293 44.4861 21.2723 45 22.5028 45C23.7332 45 24.9762 44.4861 25.9116 43.4786L27.5188 41.7475C28.0461 41.1795 28.4102 40.5033 28.6362 39.7865C28.7367 39.7933 28.8371 39.8068 28.9313 39.8068C30.1617 39.8068 31.4047 39.2929 32.3401 38.2854C33.2755 37.2778 33.7464 35.9457 33.7464 34.6136H33.7526C34.9831 34.6136 36.2261 34.0997 37.1615 33.0922C38.0718 32.1117 38.5363 30.8134 38.5552 29.5084C39.7417 29.4678 41.0412 29.0012 42.0268 27.8517H42.0331C43.4393 26.2018 43.4331 23.8689 42.4977 21.9282C44.155 19.4669 45.1406 16.424 44.9837 13.1377C44.6321 5.4899 38.3731 -0.210423 31.3482 0.00595956C28.5734 0.087103 25.2901 0.743012 22.5028 3.33284C19.7154 0.743012 16.4321 0.087103 13.6573 0.00595956ZM13.5632 3.46808C15.8985 3.5357 18.1585 3.9617 20.1611 5.71305L15.8922 10.1624L15.8797 10.1692C14.0089 12.1842 14.0089 15.4976 15.8797 17.5127C16.8151 18.5202 18.0581 19.0341 19.2885 19.0341C20.519 19.0341 21.762 18.5202 22.6974 17.5194L27.2551 12.7861C28.1779 11.8326 29.5904 11.8597 30.4882 12.8401L39.704 23.0034L39.7103 23.0101C40.3506 23.6931 40.3318 24.7209 39.6664 25.4985H39.6601V25.5053C39.2018 26.0462 38.7435 26.1341 38.166 26.0598C37.5884 25.9854 36.9794 25.5526 36.9167 25.4715L31.6998 19.5751L29.377 21.9553L34.8764 28.183L34.8889 28.1965C35.5293 28.8863 35.5293 29.9547 34.8889 30.6444H34.8827C34.5688 30.9892 34.167 31.1515 33.7526 31.1515C33.1876 31.1515 33.0495 31.1786 32.8737 31.1245C32.7042 31.0771 32.3464 30.9081 31.6496 30.1643L26.8784 24.7682L24.5556 27.1484L30.055 33.3762L30.0676 33.3897C30.7079 34.0794 30.7079 35.1478 30.0676 35.8376H30.0613C29.7474 36.1824 29.3456 36.3447 28.9313 36.3447C28.8246 36.3447 28.7241 36.3244 28.6237 36.2974C28.3914 35.6076 28.0273 34.9517 27.5188 34.404C26.5834 33.3965 25.3466 32.8893 24.1099 32.8893H24.1036C24.1036 31.5572 23.6328 30.2184 22.6974 29.2108C21.762 28.2033 20.5253 27.6962 19.2885 27.6962H19.2823C19.2823 26.3641 18.8114 25.0252 17.876 24.0177C16.9406 23.0101 15.7039 22.503 14.4672 22.503H14.4609C14.4609 21.1709 13.99 19.832 13.0547 18.8245C12.1193 17.8169 10.8825 17.3098 9.64579 17.3098C8.40906 17.3098 7.17233 17.8169 6.23693 18.8245L5.12576 20.0146C3.84508 18.155 3.11057 15.8425 3.22985 13.3067C3.49352 7.61992 8.20189 3.30579 13.5632 3.46808ZM31.4424 3.46808C36.8037 3.30579 41.512 7.61992 41.7757 13.3067C41.8699 15.3624 41.2923 17.2016 40.4323 18.8448L32.7859 10.4194C30.6828 8.10002 27.1923 8.04592 25.0327 10.2977L20.4374 15.0581L20.4248 15.0648C20.1047 15.4097 19.7029 15.572 19.2885 15.572C18.8742 15.572 18.4724 15.4097 18.1585 15.0648H18.1522C17.5119 14.3751 17.5119 13.3067 18.1522 12.617L24.1036 6.41629L24.1099 6.40953C26.2883 4.06313 28.8183 3.54246 31.4424 3.46808ZM9.64579 20.7584C10.0538 20.7584 10.4619 20.9274 10.7821 21.2723C11.4224 21.962 11.4224 23.0304 10.7821 23.7201L9.17495 25.4512H9.16868C8.85479 25.796 8.453 25.9583 8.03867 25.9583C7.62433 25.9583 7.22255 25.796 6.90866 25.4512H6.90238C6.26204 24.7615 6.26204 23.6931 6.90238 23.0034L8.50951 21.2723C8.82967 20.9274 9.23773 20.7584 9.64579 20.7584ZM14.4672 25.9516C14.8752 25.9516 15.2833 26.1206 15.6034 26.4655C16.2438 27.1552 16.2438 28.2236 15.6034 28.9133L13.9963 30.6444H13.99C13.6762 30.9892 13.2744 31.1515 12.86 31.1515C12.4457 31.1515 12.0439 30.9892 11.73 30.6444H11.7238C11.0834 29.9547 11.0834 28.8863 11.7238 28.1965L13.3309 26.4655C13.651 26.1206 14.0591 25.9516 14.4672 25.9516ZM19.2885 31.1448C19.6966 31.1448 20.1047 31.3138 20.4248 31.6587C21.0652 32.3484 21.0652 33.4168 20.4248 34.1065L18.8177 35.8376H18.8114C18.4975 36.1824 18.0957 36.3447 17.6814 36.3447C17.2671 36.3447 16.8653 36.1824 16.5514 35.8376H16.5451C15.9048 35.1478 15.9048 34.0794 16.5451 33.3897L18.1522 31.6587C18.4724 31.3138 18.8805 31.1448 19.2885 31.1448ZM24.1099 36.3379C24.518 36.3379 24.926 36.507 25.2462 36.8518C25.8865 37.5416 25.8865 38.61 25.2462 39.2997L23.6391 41.0307H23.6328C23.3189 41.3756 22.9171 41.5379 22.5028 41.5379C22.0884 41.5379 21.6867 41.3756 21.3728 41.0307H21.3665C20.7262 40.341 20.7262 39.2726 21.3665 38.5829L22.9736 36.8518C23.2938 36.507 23.7018 36.3379 24.1099 36.3379Z" fill="#213966"/>
</svg>
