<svg width="65" height="65" viewBox="0 0 65 65" fill="none" xmlns="http://www.w3.org/2000/svg">
<g filter="url(#filter0_d_85_193)">
<path d="M23.6573 6.00596C16.6324 5.78958 10.3734 11.4899 10.0156 19.1377C9.85866 22.5998 10.8945 25.832 12.7151 28.3542L12.7276 28.361L13.3303 29.1724C13.0164 30.8291 13.4433 32.621 14.6298 33.899C15.5652 34.9065 16.8082 35.4205 18.0387 35.4205C18.0387 35.4205 18.0449 35.4205 18.0512 35.4205C18.0512 36.7526 18.5158 38.0847 19.4512 39.0922C20.3866 40.0997 21.6296 40.6136 22.86 40.6136H22.8663C22.8663 41.9457 23.3372 43.2778 24.2725 44.2854C25.2079 45.2929 26.451 45.8068 27.6814 45.8068H27.6877C27.6877 47.1389 28.1585 48.471 29.0939 49.4786C30.0293 50.4861 31.2723 51 32.5028 51C33.7332 51 34.9762 50.4861 35.9116 49.4786L37.5188 47.7475C38.0461 47.1795 38.4102 46.5033 38.6362 45.7865C38.7367 45.7933 38.8371 45.8068 38.9313 45.8068C40.1617 45.8068 41.4047 45.2929 42.3401 44.2854C43.2755 43.2778 43.7464 41.9457 43.7464 40.6136H43.7526C44.9831 40.6136 46.2261 40.0997 47.1615 39.0922C48.0718 38.1117 48.5363 36.8134 48.5552 35.5084C49.7417 35.4678 51.0412 35.0012 52.0268 33.8517H52.0331C53.4393 32.2018 53.4331 29.8689 52.4977 27.9282C54.155 25.4669 55.1406 22.424 54.9837 19.1377C54.6321 11.4899 48.3731 5.78958 41.3482 6.00596C38.5734 6.0871 35.2901 6.74301 32.5028 9.33284C29.7154 6.74301 26.4321 6.0871 23.6573 6.00596ZM23.5632 9.46808C25.8985 9.5357 28.1585 9.9617 30.1611 11.713L25.8922 16.1624L25.8797 16.1692C24.0089 18.1842 24.0089 21.4976 25.8797 23.5127C26.8151 24.5202 28.0581 25.0341 29.2885 25.0341C30.519 25.0341 31.762 24.5202 32.6974 23.5194L37.2551 18.7861C38.1779 17.8326 39.5904 17.8597 40.4882 18.8401L49.704 29.0034L49.7103 29.0101C50.3506 29.6931 50.3318 30.7209 49.6664 31.4985H49.6601V31.5053C49.2018 32.0462 48.7435 32.1341 48.166 32.0598C47.5884 31.9854 46.9794 31.5526 46.9167 31.4715L41.6998 25.5751L39.377 27.9553L44.8764 34.183L44.8889 34.1965C45.5293 34.8863 45.5293 35.9547 44.8889 36.6444H44.8827C44.5688 36.9892 44.167 37.1515 43.7526 37.1515C43.1876 37.1515 43.0495 37.1786 42.8737 37.1245C42.7042 37.0771 42.3464 36.9081 41.6496 36.1643L36.8784 30.7682L34.5556 33.1484L40.055 39.3762L40.0676 39.3897C40.7079 40.0794 40.7079 41.1478 40.0676 41.8376H40.0613C39.7474 42.1824 39.3456 42.3447 38.9313 42.3447C38.8246 42.3447 38.7241 42.3244 38.6237 42.2974C38.3914 41.6076 38.0273 40.9517 37.5188 40.404C36.5834 39.3965 35.3466 38.8893 34.1099 38.8893H34.1036C34.1036 37.5572 33.6328 36.2184 32.6974 35.2108C31.762 34.2033 30.5253 33.6962 29.2885 33.6962H29.2823C29.2823 32.3641 28.8114 31.0252 27.876 30.0177C26.9406 29.0101 25.7039 28.503 24.4672 28.503H24.4609C24.4609 27.1709 23.99 25.832 23.0547 24.8245C22.1193 23.8169 20.8825 23.3098 19.6458 23.3098C18.4091 23.3098 17.1723 23.8169 16.2369 24.8245L15.1258 26.0146C13.8451 24.155 13.1106 21.8425 13.2299 19.3067C13.4935 13.6199 18.2019 9.30579 23.5632 9.46808ZM41.4424 9.46808C46.8037 9.30579 51.512 13.6199 51.7757 19.3067C51.8699 21.3624 51.2923 23.2016 50.4323 24.8448L42.7859 16.4194C40.6828 14.1 37.1923 14.0459 35.0327 16.2977L30.4374 21.0581L30.4248 21.0648C30.1047 21.4097 29.7029 21.572 29.2885 21.572C28.8742 21.572 28.4724 21.4097 28.1585 21.0648H28.1522C27.5119 20.3751 27.5119 19.3067 28.1522 18.617L34.1036 12.4163L34.1099 12.4095C36.2883 10.0631 38.8183 9.54246 41.4424 9.46808ZM19.6458 26.7584C20.0538 26.7584 20.4619 26.9274 20.7821 27.2723C21.4224 27.962 21.4224 29.0304 20.7821 29.7201L19.175 31.4512H19.1687C18.8548 31.796 18.453 31.9583 18.0387 31.9583C17.6243 31.9583 17.2226 31.796 16.9087 31.4512H16.9024C16.262 30.7615 16.262 29.6931 16.9024 29.0034L18.5095 27.2723C18.8297 26.9274 19.2377 26.7584 19.6458 26.7584ZM24.4672 31.9516C24.8752 31.9516 25.2833 32.1206 25.6034 32.4655C26.2438 33.1552 26.2438 34.2236 25.6034 34.9133L23.9963 36.6444H23.99C23.6762 36.9892 23.2744 37.1515 22.86 37.1515C22.4457 37.1515 22.0439 36.9892 21.73 36.6444H21.7238C21.0834 35.9547 21.0834 34.8863 21.7238 34.1965L23.3309 32.4655C23.651 32.1206 24.0591 31.9516 24.4672 31.9516ZM29.2885 37.1448C29.6966 37.1448 30.1047 37.3138 30.4248 37.6587C31.0652 38.3484 31.0652 39.4168 30.4248 40.1065L28.8177 41.8376H28.8114C28.4975 42.1824 28.0957 42.3447 27.6814 42.3447C27.2671 42.3447 26.8653 42.1824 26.5514 41.8376H26.5451C25.9048 41.1478 25.9048 40.0794 26.5451 39.3897L28.1522 37.6587C28.4724 37.3138 28.8805 37.1448 29.2885 37.1448ZM34.1099 42.3379C34.518 42.3379 34.926 42.507 35.2462 42.8518C35.8865 43.5416 35.8865 44.61 35.2462 45.2997L33.6391 47.0307H33.6328C33.3189 47.3756 32.9171 47.5379 32.5028 47.5379C32.0884 47.5379 31.6867 47.3756 31.3728 47.0307H31.3665C30.7262 46.341 30.7262 45.2726 31.3665 44.5829L32.9736 42.8518C33.2938 42.507 33.7018 42.3379 34.1099 42.3379Z" fill="#213966"/>
</g>
<defs>
<filter id="filter0_d_85_193" x="0" y="0" width="65" height="65" filterUnits="userSpaceOnUse" color-interpolation-filters="sRGB">
<feFlood flood-opacity="0" result="BackgroundImageFix"/>
<feColorMatrix in="SourceAlpha" type="matrix" values="0 0 0 0 0 0 0 0 0 0 0 0 0 0 0 0 0 0 127 0" result="hardAlpha"/>
<feOffset dy="4"/>
<feGaussianBlur stdDeviation="5"/>
<feComposite in2="hardAlpha" operator="out"/>
<feColorMatrix type="matrix" values="0 0 0 0 0 0 0 0 0 0 0 0 0 0 0 0 0 0 0.3 0"/>
<feBlend mode="normal" in2="BackgroundImageFix" result="effect1_dropShadow_85_193"/>
<feBlend mode="normal" in="SourceGraphic" in2="effect1_dropShadow_85_193" result="shape"/>
</filter>
</defs>
</svg>
