<svg width="40" height="55" viewBox="0 0 40 55" fill="none" xmlns="http://www.w3.org/2000/svg">
<path d="M20 0C17.251 0 15 2.0634 15 4.58333V5.72917H3.75C1.69434 5.72917 0 7.28231 0 9.16667V51.5625C0 53.4469 1.69434 55 3.75 55H36.25C38.3057 55 40 53.4469 40 51.5625V9.16667C40 7.28231 38.3057 5.72917 36.25 5.72917H25V4.58333C25 2.0634 22.749 0 20 0ZM20 2.29167C21.3965 2.29167 22.5 3.30322 22.5 4.58333V6.68254C22.4756 6.80786 22.4756 6.93319 22.5 7.05404V9.16667H17.5V7.06746C17.5244 6.94214 17.5244 6.81681 17.5 6.69596V4.58333C17.5 3.30322 18.6035 2.29167 20 2.29167ZM20 3.4375C19.3115 3.4375 18.75 3.95223 18.75 4.58333C18.75 5.21444 19.3115 5.72917 20 5.72917C20.6885 5.72917 21.25 5.21444 21.25 4.58333C21.25 3.95223 20.6885 3.4375 20 3.4375ZM3.75 8.02083H15V10.3125C15 10.9436 15.5615 11.4583 16.25 11.4583H23.75C24.4385 11.4583 25 10.9436 25 10.3125V8.02083H36.25C36.958 8.02083 37.5 8.51766 37.5 9.16667V51.5625C37.5 52.2115 36.958 52.7083 36.25 52.7083H3.75C3.04199 52.7083 2.5 52.2115 2.5 51.5625V9.16667C2.5 8.51766 3.04199 8.02083 3.75 8.02083ZM30.3662 23.2524L16.25 36.1922L9.63379 30.1274L7.86621 31.7476L16.25 39.4328L32.1338 24.8726L30.3662 23.2524Z" fill="#213966"/>
</svg>
