<svg width="65" height="75" viewBox="0 0 65 75" fill="none" xmlns="http://www.w3.org/2000/svg">
<g filter="url(#filter0_d_85_203)">
<path d="M17.0312 6C15.647 6 14.4824 6.55 13.6475 7.20312C13.6145 7.22461 13.587 7.24609 13.5596 7.27188L10.9668 9.78125C10.9009 9.81992 10.8514 9.87148 10.791 9.91875C10.5878 10.0777 10.434 10.2668 10.3076 10.4688C10.2747 10.5117 10.2472 10.559 10.2197 10.6063C10.2142 10.6191 10.1813 10.6277 10.1758 10.6406C10.1758 10.6621 10.1758 10.6879 10.1758 10.7094C10.0659 10.9629 10 11.2336 10 11.5V58.8C10 59.3758 10.2582 59.9645 10.791 60.3813C11.3239 60.798 12.0764 61 12.8125 61H52.1875C52.9236 61 53.6761 60.798 54.209 60.3813C54.7418 59.9645 55 59.3758 55 58.8V11.5C55 10.9801 54.7693 10.4602 54.3408 10.0563C54.3298 10.0348 54.3134 10.009 54.2969 9.9875C54.2804 9.97461 54.2694 9.96602 54.2529 9.95312C54.2145 9.90586 54.1705 9.85859 54.1211 9.81563L51.3525 7.20312C51.347 7.19453 51.3141 7.21172 51.3086 7.20312C51.3031 7.19883 51.3141 7.17305 51.3086 7.16875C50.5505 6.40391 49.3915 6 48.1006 6H17.0312ZM17.0312 8.2H48.1006C48.4741 8.2 49.0289 8.45781 49.1113 8.54375C49.1278 8.55664 49.1388 8.56523 49.1553 8.57812L49.9023 9.3H15.0537L15.625 8.75H15.6689C16.2073 8.32891 16.4655 8.2 17.0312 8.2ZM12.8125 11.5H52.1875V58.8H12.8125V11.5ZM19.8438 15.9C19.1077 15.9 18.3551 16.102 17.8223 16.5188C17.2894 16.9355 17.0312 17.5242 17.0312 18.1V23.6C17.0312 23.9781 17.1521 24.3605 17.3828 24.7C17.1521 25.0395 17.0312 25.4219 17.0312 25.8V31.3C17.0312 31.8758 17.2894 32.4645 17.8223 32.8813C18.3551 33.298 19.1077 33.5 19.8438 33.5H45.1562C45.8923 33.5 46.6449 33.298 47.1777 32.8813C47.7106 32.4645 47.9688 31.8758 47.9688 31.3V25.8C47.9688 25.4219 47.8479 25.0395 47.6172 24.7C47.8479 24.3605 47.9688 23.9781 47.9688 23.6V18.1C47.9688 17.5242 47.7106 16.9355 47.1777 16.5188C46.6449 16.102 45.8923 15.9 45.1562 15.9H19.8438ZM19.8438 18.1H45.1562V23.6H19.8438V18.1ZM19.8438 25.8H45.1562V31.3H19.8438V25.8ZM32.5 41.2C30.9509 41.2 29.6875 42.1883 29.6875 43.4C29.6875 44.6117 30.9509 45.6 32.5 45.6C34.0491 45.6 35.3125 44.6117 35.3125 43.4C35.3125 42.1883 34.0491 41.2 32.5 41.2ZM32.5 48.9C30.9509 48.9 29.6875 49.8883 29.6875 51.1C29.6875 52.3117 30.9509 53.3 32.5 53.3C34.0491 53.3 35.3125 52.3117 35.3125 51.1C35.3125 49.8883 34.0491 48.9 32.5 48.9Z" fill="#213966"/>
</g>
<defs>
<filter id="filter0_d_85_203" x="0" y="0" width="65" height="75" filterUnits="userSpaceOnUse" color-interpolation-filters="sRGB">
<feFlood flood-opacity="0" result="BackgroundImageFix"/>
<feColorMatrix in="SourceAlpha" type="matrix" values="0 0 0 0 0 0 0 0 0 0 0 0 0 0 0 0 0 0 127 0" result="hardAlpha"/>
<feOffset dy="4"/>
<feGaussianBlur stdDeviation="5"/>
<feComposite in2="hardAlpha" operator="out"/>
<feColorMatrix type="matrix" values="0 0 0 0 0 0 0 0 0 0 0 0 0 0 0 0 0 0 0.3 0"/>
<feBlend mode="normal" in2="BackgroundImageFix" result="effect1_dropShadow_85_203"/>
<feBlend mode="normal" in="SourceGraphic" in2="effect1_dropShadow_85_203" result="shape"/>
</filter>
</defs>
</svg>
