<svg width="45" height="55" viewBox="0 0 45 55" fill="none" xmlns="http://www.w3.org/2000/svg">
<path d="M7.03125 0C5.64697 0 4.48242 0.55 3.64746 1.20312C3.6145 1.22461 3.58704 1.24609 3.55957 1.27188L0.966797 3.78125C0.900879 3.81992 0.851441 3.87148 0.791016 3.91875C0.587769 4.07773 0.43396 4.2668 0.307617 4.46875C0.274659 4.51172 0.247192 4.55898 0.219727 4.60625C0.214234 4.61914 0.181274 4.62773 0.175781 4.64062C0.175781 4.66211 0.175781 4.68789 0.175781 4.70937C0.065918 4.96289 0 5.23359 0 5.5V52.8C0 53.3758 0.258179 53.9645 0.791016 54.3813C1.32385 54.798 2.07642 55 2.8125 55H42.1875C42.9236 55 43.6761 54.798 44.209 54.3813C44.7418 53.9645 45 53.3758 45 52.8V5.5C45 4.98008 44.7693 4.46016 44.3408 4.05625C44.3298 4.03477 44.3134 4.00898 44.2969 3.9875C44.2804 3.97461 44.2694 3.96602 44.2529 3.95312C44.2145 3.90586 44.1705 3.85859 44.1211 3.81563L41.3525 1.20312C41.347 1.19453 41.3141 1.21172 41.3086 1.20312C41.3031 1.19883 41.3141 1.17305 41.3086 1.16875C40.5505 0.403907 39.3915 0 38.1006 0H7.03125ZM7.03125 2.2H38.1006C38.4741 2.2 39.0289 2.45781 39.1113 2.54375C39.1278 2.55664 39.1388 2.56523 39.1553 2.57812L39.9023 3.3H5.05371L5.625 2.75H5.66895C6.20728 2.32891 6.46545 2.2 7.03125 2.2ZM2.8125 5.5H42.1875V52.8H2.8125V5.5ZM9.84375 9.9C9.10767 9.9 8.3551 10.102 7.82227 10.5188C7.28943 10.9355 7.03125 11.5242 7.03125 12.1V17.6C7.03125 17.9781 7.1521 18.3605 7.38281 18.7C7.1521 19.0395 7.03125 19.4219 7.03125 19.8V25.3C7.03125 25.8758 7.28943 26.4645 7.82227 26.8813C8.3551 27.298 9.10767 27.5 9.84375 27.5H35.1562C35.8923 27.5 36.6449 27.298 37.1777 26.8813C37.7106 26.4645 37.9688 25.8758 37.9688 25.3V19.8C37.9688 19.4219 37.8479 19.0395 37.6172 18.7C37.8479 18.3605 37.9688 17.9781 37.9688 17.6V12.1C37.9688 11.5242 37.7106 10.9355 37.1777 10.5188C36.6449 10.102 35.8923 9.9 35.1562 9.9H9.84375ZM9.84375 12.1H35.1562V17.6H9.84375V12.1ZM9.84375 19.8H35.1562V25.3H9.84375V19.8ZM22.5 35.2C20.9509 35.2 19.6875 36.1883 19.6875 37.4C19.6875 38.6117 20.9509 39.6 22.5 39.6C24.0491 39.6 25.3125 38.6117 25.3125 37.4C25.3125 36.1883 24.0491 35.2 22.5 35.2ZM22.5 42.9C20.9509 42.9 19.6875 43.8883 19.6875 45.1C19.6875 46.3117 20.9509 47.3 22.5 47.3C24.0491 47.3 25.3125 46.3117 25.3125 45.1C25.3125 43.8883 24.0491 42.9 22.5 42.9Z" fill="#213966"/>
</svg>
