<svg width="65" height="65" viewBox="0 0 65 65" fill="none" xmlns="http://www.w3.org/2000/svg">
<g filter="url(#filter0_d_85_208)">
<path d="M32.0004 6C27.3005 6 23.5913 7.67866 21.5513 10.7341C19.8314 13.321 19.5411 16.6503 20.731 19.7448C20.351 20.272 20.02 21.0714 20.11 22.1452C20.4 24.2538 21.231 25.1228 21.9009 25.4742C22.2409 27.2313 23.2201 29.0972 24.1001 29.9757C24.1101 30.2002 24.1099 30.4056 24.1099 30.6106C24.1299 31.5478 24.15 32.3672 24.02 33.4019C23.4701 34.8662 21.4003 35.6851 19.0104 36.6222C15.1404 38.1353 10.3307 40.0292 10.0008 45.9742C9.99075 46.2377 10.0803 46.5015 10.2703 46.6968C10.4603 46.892 10.7307 46.9999 11.0007 46.9999H37.3011C36.8511 46.4044 36.4103 45.7602 36.0003 45.0475H32.6664L31.0004 40.1666L31.8969 37.9797L33.3207 37.4134C33.2107 36.7692 33.1304 36.0953 33.0804 35.3924L30.893 36.2618H29.0961L25.5142 34.8357C25.6893 34.5549 25.8394 34.2565 25.9497 33.9281C25.9697 33.8696 25.9807 33.8115 25.9907 33.7432C26.1507 32.523 26.1299 31.5758 26.1099 30.5801C26.1099 30.2385 26.1001 29.8967 26.1001 29.5258C26.1001 29.2036 25.8799 28.8723 25.6099 28.6868C25.2199 28.4233 23.9713 26.4701 23.8013 24.6544C23.7513 24.1467 23.3897 23.7773 22.8697 23.7773C22.7297 23.7187 22.2802 23.2593 22.1002 21.9317C22.0902 21.8731 22.0904 21.8149 22.0904 21.7563C22.0904 21.0632 22.4615 20.7706 22.4615 20.7706C22.8615 20.507 23.0111 19.9989 22.8111 19.5694C21.6111 16.9044 21.761 14.004 23.231 11.8076C24.801 9.44518 27.6811 8.09858 31.391 7.96191L32.1098 9.36709C32.2698 9.69899 32.6204 9.90475 33.0004 9.90475C34.8803 9.90475 36.2695 10.7737 37.1194 12.5016C38.3594 14.9811 38.0312 18.4262 37.2112 19.4512C37.0012 19.7245 36.9408 20.0766 37.0608 20.3988C37.1708 20.6721 37.3904 20.877 37.6604 20.9746C37.7304 21.0917 37.8511 21.4239 37.8011 22.0194C37.6711 23.4642 37.1999 23.8455 37.0999 23.865C36.5999 23.865 36.1797 24.2161 36.1097 24.6944C35.8297 26.4906 34.6911 28.5012 34.3011 28.7746C33.9911 28.9503 33.8011 29.2716 33.8011 29.623C33.8011 30.0428 33.8009 30.4432 33.8109 30.8337L35.3109 30.4638C35.4809 30.4248 35.6411 30.3944 35.8011 30.3456V30.0634C36.6911 29.1458 37.5912 27.1927 37.9612 25.621C38.6812 25.2891 39.591 24.4305 39.801 22.1853C39.881 21.2189 39.6893 20.3892 39.2893 19.823C40.1893 17.8316 40.2702 14.336 38.9202 11.6417C37.8302 9.45502 35.9712 8.17621 33.6312 7.98098L32.891 6.53767C32.731 6.20576 32.3804 6 32.0004 6ZM45.0002 29.4285C43.5163 29.4285 42.4558 29.9388 41.301 30.5019H41.2991C40.0481 31.1125 38.5752 31.7768 35.8323 32.3495L35.8109 32.3533L35.0003 32.5611V33.3333C35.0003 44.4673 42.1341 49.4752 44.4064 50.7521L44.4103 50.754L44.4123 50.756C44.4123 50.756 44.4085 50.7541 44.4279 50.7655L44.5002 50.8074L44.5763 50.836L45.0002 51L45.4591 50.8265L45.506 50.8036C45.6238 50.7449 45.5933 50.7585 45.674 50.7121C45.7547 50.6657 45.8655 50.5995 46.0021 50.5138C46.2753 50.3424 46.6531 50.0902 47.0997 49.7531C47.9931 49.0787 49.1638 48.062 50.3341 46.6586C52.6745 43.8518 55 39.4723 55 33.3333V32.5306L54.2051 32.359L54.2012 32.3571C51.424 31.7764 49.9504 31.114 48.7013 30.5039C47.5461 29.9395 46.4841 29.4285 45.0002 29.4285ZM45.0002 31.3809C46.0442 31.3809 46.65 31.6842 47.8048 32.2484C48.9531 32.8093 50.5771 33.4596 52.9356 34.0311C52.7606 39.2922 50.8009 43.0074 48.7833 45.427C47.7276 46.6931 46.6682 47.6101 45.8752 48.2087C45.5218 48.4755 45.2465 48.6553 45.0236 48.7979C42.879 47.5195 37.3435 43.3761 37.055 34.0349C39.4147 33.4663 41.0386 32.8122 42.1936 32.2484C43.3487 31.6851 43.9561 31.3809 45.0002 31.3809ZM53 34.0483C53.2917 34.1182 53.462 34.1989 53.7813 34.2656H53.7735L53 34.0959V34.0483ZM37.0003 34.0502V34.0673L36.2952 34.2485L36.2523 34.258C36.5571 34.1943 36.7206 34.1169 37.0003 34.0502ZM49.2325 35.6365L44.84 40.7824L41.5998 38.4087L40.4006 39.9721L45.1603 43.4555L50.7676 36.8872L49.2325 35.6365ZM24.0337 36.3534L28.102 37.974L29.0004 40.1666L27.3344 45.0475H12.1199C12.8498 41.1428 16.3506 39.767 19.7506 38.4297C21.3376 37.8111 22.8598 37.1999 24.0337 36.3534Z" fill="#213966"/>
</g>
<defs>
<filter id="filter0_d_85_208" x="0" y="0" width="65" height="65" filterUnits="userSpaceOnUse" color-interpolation-filters="sRGB">
<feFlood flood-opacity="0" result="BackgroundImageFix"/>
<feColorMatrix in="SourceAlpha" type="matrix" values="0 0 0 0 0 0 0 0 0 0 0 0 0 0 0 0 0 0 127 0" result="hardAlpha"/>
<feOffset dy="4"/>
<feGaussianBlur stdDeviation="5"/>
<feComposite in2="hardAlpha" operator="out"/>
<feColorMatrix type="matrix" values="0 0 0 0 0 0 0 0 0 0 0 0 0 0 0 0 0 0 0.3 0"/>
<feBlend mode="normal" in2="BackgroundImageFix" result="effect1_dropShadow_85_208"/>
<feBlend mode="normal" in="SourceGraphic" in2="effect1_dropShadow_85_208" result="shape"/>
</filter>
</defs>
</svg>
