<svg width="45" height="45" viewBox="0 0 45 45" fill="none" xmlns="http://www.w3.org/2000/svg">
<path d="M22.0004 0C17.3005 0 13.5913 1.67866 11.5513 4.73413C9.83137 7.32103 9.54106 10.6503 10.731 13.7448C10.351 14.272 10.02 15.0714 10.11 16.1452C10.4 18.2538 11.231 19.1228 11.9009 19.4742C12.2409 21.2313 13.2201 23.0972 14.1001 23.9757C14.1101 24.2002 14.1099 24.4056 14.1099 24.6106C14.1299 25.5478 14.15 26.3672 14.02 27.4019C13.4701 28.8662 11.4003 29.6851 9.01037 30.6222C5.14043 32.1353 0.330748 34.0292 0.0007534 39.9742C-0.00924643 40.2377 0.0802834 40.5015 0.27028 40.6968C0.460277 40.892 0.730741 40.9999 1.00074 40.9999H27.3011C26.8511 40.4044 26.4103 39.7602 26.0003 39.0475H22.6664L21.0004 34.1666L21.8969 31.9797L23.3207 31.4134C23.2107 30.7692 23.1304 30.0953 23.0804 29.3924L20.893 30.2618H19.0961L15.5142 28.8357C15.6893 28.5549 15.8394 28.2565 15.9497 27.9281C15.9697 27.8696 15.9807 27.8115 15.9907 27.7432C16.1507 26.523 16.1299 25.5758 16.1099 24.5801C16.1099 24.2385 16.1001 23.8967 16.1001 23.5258C16.1001 23.2036 15.8799 22.8723 15.6099 22.6868C15.2199 22.4233 13.9713 20.4701 13.8013 18.6544C13.7513 18.1467 13.3897 17.7773 12.8697 17.7773C12.7297 17.7187 12.2802 17.2593 12.1002 15.9317C12.0902 15.8731 12.0904 15.8149 12.0904 15.7563C12.0904 15.0632 12.4615 14.7706 12.4615 14.7706C12.8615 14.507 13.0111 13.9989 12.8111 13.5694C11.6111 10.9044 11.761 8.00398 13.231 5.80756C14.801 3.44518 17.6811 2.09858 21.391 1.96191L22.1098 3.36709C22.2698 3.69899 22.6204 3.90475 23.0004 3.90475C24.8803 3.90475 26.2695 4.77371 27.1194 6.50157C28.3594 8.98109 28.0312 12.4262 27.2112 13.4512C27.0012 13.7245 26.9408 14.0766 27.0608 14.3988C27.1708 14.6721 27.3904 14.877 27.6604 14.9746C27.7304 15.0917 27.8511 15.4239 27.8011 16.0194C27.6711 17.4642 27.1999 17.8455 27.0999 17.865C26.5999 17.865 26.1797 18.2161 26.1097 18.6944C25.8297 20.4906 24.6911 22.5012 24.3011 22.7746C23.9911 22.9503 23.8011 23.2716 23.8011 23.623C23.8011 24.0428 23.8009 24.4432 23.8109 24.8337L25.3109 24.4638C25.4809 24.4248 25.6411 24.3944 25.8011 24.3456V24.0634C26.6911 23.1458 27.5912 21.1927 27.9612 19.621C28.6812 19.2891 29.591 18.4305 29.801 16.1853C29.881 15.2189 29.6893 14.3892 29.2893 13.823C30.1893 11.8316 30.2702 8.33596 28.9202 5.64168C27.8302 3.45502 25.9712 2.17621 23.6312 1.98098L22.891 0.537666C22.731 0.205762 22.3804 0 22.0004 0ZM35.0002 23.4285C33.5163 23.4285 32.4558 23.9388 31.301 24.5019H31.2991C30.0481 25.1125 28.5752 25.7768 25.8323 26.3495L25.8109 26.3533L25.0003 26.5611V27.3333C25.0003 38.4673 32.1341 43.4752 34.4064 44.7521L34.4103 44.754L34.4123 44.756C34.4123 44.756 34.4085 44.7541 34.4279 44.7655L34.5002 44.8074L34.5763 44.836L35.0002 45L35.4591 44.8265L35.506 44.8036C35.6238 44.7449 35.5933 44.7585 35.674 44.7121C35.7547 44.6657 35.8655 44.5995 36.0021 44.5138C36.2753 44.3424 36.6531 44.0902 37.0997 43.7531C37.9931 43.0787 39.1638 42.062 40.3341 40.6586C42.6745 37.8518 45 33.4723 45 27.3333V26.5306L44.2051 26.359L44.2012 26.3571C41.424 25.7764 39.9504 25.114 38.7013 24.5039C37.5461 23.9395 36.4841 23.4285 35.0002 23.4285ZM35.0002 25.3809C36.0442 25.3809 36.65 25.6842 37.8048 26.2484C38.9531 26.8093 40.5771 27.4596 42.9356 28.0311C42.7606 33.2922 40.8009 37.0074 38.7833 39.427C37.7276 40.6931 36.6682 41.6101 35.8752 42.2087C35.5218 42.4755 35.2465 42.6553 35.0236 42.7979C32.879 41.5195 27.3435 37.3761 27.055 28.0349C29.4147 27.4663 31.0386 26.8122 32.1936 26.2484C33.3487 25.6851 33.9561 25.3809 35.0002 25.3809ZM43 28.0483C43.2917 28.1182 43.462 28.1989 43.7813 28.2656H43.7735L43 28.0959V28.0483ZM27.0003 28.0502V28.0673L26.2952 28.2485L26.2523 28.258C26.5571 28.1943 26.7206 28.1169 27.0003 28.0502ZM39.2325 29.6365L34.84 34.7824L31.5998 32.4087L30.4006 33.9721L35.1603 37.4555L40.7676 30.8872L39.2325 29.6365ZM14.0337 30.3534L18.102 31.974L19.0004 34.1666L17.3344 39.0475H2.11986C2.84985 35.1428 6.35065 33.767 9.75059 32.4297C11.3376 31.8111 12.8598 31.1999 14.0337 30.3534Z" fill="#213966"/>
</svg>
